<?xml version="1.0" encoding="UTF-8" standalone="no"?>
<!-- Created with Inkscape (http://www.inkscape.org/) -->

<svg
   xmlns:dc="http://purl.org/dc/elements/1.1/"
   xmlns:cc="http://creativecommons.org/ns#"
   xmlns:rdf="http://www.w3.org/1999/02/22-rdf-syntax-ns#"
   xmlns:svg="http://www.w3.org/2000/svg"
   xmlns="http://www.w3.org/2000/svg"
   xmlns:xlink="http://www.w3.org/1999/xlink"
   xmlns:sodipodi="http://sodipodi.sourceforge.net/DTD/sodipodi-0.dtd"
   xmlns:inkscape="http://www.inkscape.org/namespaces/inkscape"
   width="330.35675"
   height="401.65759"
   id="svg2"
   version="1.1"
   inkscape:version="0.48.2 r9819"
   sodipodi:docname="nerdswap2.svg"
   inkscape:export-filename="/Users/steven/Desktop/s.png"
   inkscape:export-xdpi="70.036598"
   inkscape:export-ydpi="70.036598">
  <defs
     id="defs4">
    <linearGradient
       inkscape:collect="always"
       id="linearGradient3971">
      <stop
         style="stop-color:#000000;stop-opacity:1;"
         offset="0"
         id="stop3973" />
      <stop
         style="stop-color:#000000;stop-opacity:0;"
         offset="1"
         id="stop3975" />
    </linearGradient>
    <linearGradient
       id="linearGradient3955">
      <stop
         style="stop-color:#b79f7f;stop-opacity:1;"
         offset="0"
         id="stop3957" />
      <stop
         style="stop-color:#ffdec1;stop-opacity:0;"
         offset="1"
         id="stop3959" />
    </linearGradient>
    <linearGradient
       id="linearGradient3947">
      <stop
         style="stop-color:#ffffff;stop-opacity:1;"
         offset="0"
         id="stop3949" />
      <stop
         style="stop-color:#ffffff;stop-opacity:0;"
         offset="1"
         id="stop3951" />
    </linearGradient>
    <linearGradient
       inkscape:collect="always"
       id="linearGradient3832">
      <stop
         style="stop-color:#ffffff;stop-opacity:1;"
         offset="0"
         id="stop3834" />
      <stop
         style="stop-color:#ffffff;stop-opacity:0;"
         offset="1"
         id="stop3836" />
    </linearGradient>
    <linearGradient
       inkscape:collect="always"
       id="linearGradient3824">
      <stop
         style="stop-color:#ffffff;stop-opacity:1;"
         offset="0"
         id="stop3826" />
      <stop
         style="stop-color:#ffffff;stop-opacity:0;"
         offset="1"
         id="stop3828" />
    </linearGradient>
    <linearGradient
       id="linearGradient3812">
      <stop
         style="stop-color:#000000;stop-opacity:1;"
         offset="0"
         id="stop3814" />
      <stop
         style="stop-color:#000000;stop-opacity:0.24705882;"
         offset="1"
         id="stop3816" />
    </linearGradient>
    <linearGradient
       id="linearGradient4093">
      <stop
         style="stop-color:#000000;stop-opacity:1;"
         offset="0"
         id="stop4103" />
      <stop
         style="stop-color:#ffffff;stop-opacity:1;"
         offset="1"
         id="stop4097" />
    </linearGradient>
    <radialGradient
       inkscape:collect="always"
       xlink:href="#linearGradient3812"
       id="radialGradient3818"
       cx="172.64062"
       cy="527.46564"
       fx="172.64062"
       fy="527.46564"
       r="110.43573"
       gradientTransform="matrix(0.99506544,-0.00548949,0.00194112,0.34178853,-0.17195905,366.65643)"
       gradientUnits="userSpaceOnUse" />
    <linearGradient
       inkscape:collect="always"
       xlink:href="#linearGradient3824"
       id="linearGradient3830"
       x1="159.96645"
       y1="558.16174"
       x2="117.61932"
       y2="558.54199"
       gradientUnits="userSpaceOnUse" />
    <linearGradient
       inkscape:collect="always"
       xlink:href="#linearGradient3832"
       id="linearGradient3838"
       x1="281.29962"
       y1="554.98151"
       x2="223.62074"
       y2="555.09253"
       gradientUnits="userSpaceOnUse" />
    <filter
       inkscape:collect="always"
       id="filter3891"
       color-interpolation-filters="sRGB">
      <feGaussianBlur
         inkscape:collect="always"
         stdDeviation="0.94637264"
         id="feGaussianBlur3893" />
    </filter>
    <filter
       inkscape:collect="always"
       id="filter3895"
       x="-0.039679892"
       width="1.0793598"
       y="-0.10136878"
       height="1.2027376"
       color-interpolation-filters="sRGB">
      <feGaussianBlur
         inkscape:collect="always"
         stdDeviation="0.94637264"
         id="feGaussianBlur3897" />
    </filter>
    <linearGradient
       inkscape:collect="always"
       xlink:href="#linearGradient3947"
       id="linearGradient3953"
       x1="245.79926"
       y1="440.73785"
       x2="246.2289"
       y2="429.65842"
       gradientUnits="userSpaceOnUse"
       gradientTransform="matrix(1,0,0,1.3611043,0,-168.24624)" />
    <linearGradient
       inkscape:collect="always"
       xlink:href="#linearGradient3955"
       id="linearGradient3961"
       x1="236.41255"
       y1="424.88544"
       x2="236.09378"
       y2="449.00095"
       gradientUnits="userSpaceOnUse"
       gradientTransform="matrix(0.96318393,0,0,0.76410502,6.7584296,92.994727)" />
    <linearGradient
       inkscape:collect="always"
       xlink:href="#linearGradient3971"
       id="linearGradient3977"
       x1="236.41255"
       y1="424.88544"
       x2="236.09378"
       y2="449.00095"
       gradientUnits="userSpaceOnUse"
       gradientTransform="matrix(0.96318393,0,0,0.76410502,6.7584296,92.994727)" />
  </defs>
  <sodipodi:namedview
     id="base"
     pagecolor="#ffffff"
     bordercolor="#666666"
     borderopacity="1.0"
     inkscape:pageopacity="0.0"
     inkscape:pageshadow="2"
     inkscape:zoom="1.2409339"
     inkscape:cx="138.57874"
     inkscape:cy="201.83308"
     inkscape:document-units="px"
     inkscape:current-layer="g3117"
     showgrid="false"
     inkscape:window-width="1280"
     inkscape:window-height="697"
     inkscape:window-x="0"
     inkscape:window-y="0"
     inkscape:window-maximized="0"
     showguides="false"
     inkscape:guide-bbox="true"
     fit-margin-top="10"
     fit-margin-left="10"
     fit-margin-right="10"
     fit-margin-bottom="10"
     inkscape:snap-bbox="false">
    <sodipodi:guide
       orientation="1,0"
       position="165.20952,213.21993"
       id="guide3900" />
    <sodipodi:guide
       orientation="0,1"
       position="185.60621,-308.32854"
       id="guide3902" />
    <sodipodi:guide
       orientation="0,1"
       position="135.60621,-217.32854"
       id="guide3904" />
    <sodipodi:guide
       orientation="0,1"
       position="185.60621,-217.32854"
       id="guide4006" />
    <sodipodi:guide
       orientation="0,1"
       position="-0.39378867,-195.32854"
       id="guide4008" />
  </sodipodi:namedview>
  <metadata
     id="metadata7">
    <rdf:RDF>
      <cc:Work
         rdf:about="">
        <dc:format>image/svg+xml</dc:format>
        <dc:type
           rdf:resource="http://purl.org/dc/dcmitype/StillImage" />
        <dc:title></dc:title>
      </cc:Work>
    </rdf:RDF>
  </metadata>
  <g
     transform="translate(14.606212,6.6240006)"
     inkscape:groupmode="layer"
     id="g3117"
     inkscape:label="Head Shape"
     style="display:inline"
     sodipodi:insensitive="true">
    <path
       style="fill:none;stroke:#ffffff;stroke-width:32;stroke-miterlimit:4;stroke-opacity:1;stroke-dasharray:none;display:inline"
       d="M 155.40625,12 C 134.68506,11.9622 106.01322,15.84671 82.46875,26 58.92427,36.15329 45.49302,49.18744 36.125,64 26.75698,78.81256 18.26356,95.34251 16.03125,129.5 c -1.15046,17.60367 1.132277,38.6847 3.625,55.03125 -4.171455,1.28906 -7.761308,4.20274 -7.65625,6.6875 0.43852,10.37143 11.334761,51.0227 15.9375,55.5625 1.477363,1.45717 7.722546,3.66197 11.4375,4.5625 11.470827,32.96413 29.162267,62.93237 54.8125,87.34375 15.15114,14.94364 36.06701,23.4815 57,22.96875 20.93299,0.51275 41.84886,-8.02511 57,-22.96875 25.64985,-24.41101 43.31041,-54.38022 54.78125,-87.34375 3.71495,-0.90053 9.96014,-3.10533 11.4375,-4.5625 4.60274,-4.5398 15.46773,-45.19107 15.90625,-55.5625 0.10244,-2.42286 -3.3062,-5.25853 -7.34375,-6.59375 1.89984,-13.72761 3.39231,-31.28841 2.25,-49.03125 C 282.77909,97.69985 273.80098,78.35522 264.8125,63 255.82402,47.64479 245.10969,33.44309 222.4375,24 199.7653,14.55691 176.12745,12.03783 155.40625,12 z"
       transform="translate(-0.58391806,7.3763251)"
       id="path3119"
       inkscape:connector-curvature="0" />
  </g>
  <g
     inkscape:groupmode="layer"
     id="layer2"
     inkscape:label="Neck"
     style="display:inline"
     transform="translate(-75.609706,-76.013901)"
     sodipodi:insensitive="true">
    <path
       style="fill:url(#linearGradient3961);fill-opacity:1;stroke:url(#linearGradient3977);stroke-width:3.43155622;stroke-linecap:butt;stroke-linejoin:miter;stroke-miterlimit:4;stroke-opacity:1;stroke-dasharray:none"
       d="m 161.84778,395.1415 0.35414,42.24 155.85131,0.21648 0.36299,-41.30587 z"
       id="path3938"
       inkscape:connector-curvature="0"
       sodipodi:nodetypes="ccccc" />
  </g>
  <g
     inkscape:groupmode="layer"
     id="layer5"
     inkscape:label="Ears"
     transform="translate(27.749294,23.986099)"
     style="display:inline"
     sodipodi:insensitive="true">
    <path
       style="fill:#ffe1c0;fill-opacity:1;stroke:#000000;stroke-width:4;stroke-miterlimit:4;stroke-opacity:1;stroke-dasharray:none;display:inline"
       d="m 260.67047,236.79632 c 4.60274,-4.5398 15.48589,-45.19026 15.92441,-55.56169 0.146,-3.45309 -6.84981,-7.75872 -12.61522,-7.33816 l -4.74062,0.34583 c 14.2546,21.88249 -23.9157,65.4293 -12.47624,67.53023 2.00475,0.0848 11.99202,-3.08674 13.90767,-4.97621 z"
       id="path3852"
       inkscape:connector-curvature="0"
       sodipodi:nodetypes="sssccs" />
    <path
       sodipodi:nodetypes="sssccs"
       inkscape:connector-curvature="0"
       id="path3859"
       d="m 14.199657,236.7959 c -4.602739,-4.5398 -15.4858895,-45.19026 -15.9244095,-55.56169 -0.146,-3.45309 6.8498105,-7.75872 12.6152205,-7.33816 l 4.740619,0.34583 c -14.2545995,21.88249 23.915701,65.4293 12.47624,67.53023 -2.00475,0.0848 -11.99202,-3.08674 -13.90767,-4.97621 z"
       style="fill:#ffe1c0;fill-opacity:1;stroke:#000000;stroke-width:4;stroke-miterlimit:4;stroke-opacity:1;stroke-dasharray:none;display:inline" />
  </g>
  <g
     style="opacity:0.22699998;display:inline"
     transform="translate(27.749294,23.986099)"
     inkscape:label="Ears Shadow"
     id="g3845"
     inkscape:groupmode="layer"
     sodipodi:insensitive="true">
    <path
       style="fill:#000000;fill-opacity:1;stroke:none;display:inline"
       d="m 14.199657,236.7959 c -4.602739,-4.5398 -15.4858895,-45.19026 -15.9244095,-55.56169 -0.146,-3.45309 6.8498105,-7.75872 12.6152205,-7.33816 l 4.740619,0.34583 c -14.2545995,21.88249 23.915701,65.4293 12.47624,67.53023 -2.00475,0.0848 -11.99202,-3.08674 -13.90767,-4.97621 z"
       id="path3849"
       inkscape:connector-curvature="0"
       sodipodi:nodetypes="sssccs" />
  </g>
  <g
     style="display:inline"
     inkscape:label="Skin"
     id="g3970"
     inkscape:groupmode="layer"
     transform="translate(14.606212,6.6240006)"
     sodipodi:insensitive="true">
    <path
       style="fill:#ffdec1;fill-opacity:1;stroke:#000000;stroke-width:4;stroke-miterlimit:4;stroke-opacity:1;stroke-dasharray:none;display:inline"
       d="M 51.21875,36 C 32.801834,62.537245 10.843274,105.85679 8.812,138.71875 c 6.444449,24.15242 3.386407,51.48214 14.2505,83.3125 10.902506,40.57814 30.166617,77.54998 60.75,106.65625 15.151141,14.94364 36.06701,23.4815 57,22.96875 20.93299,0.51275 41.84886,-8.02511 57,-22.96875 30.58339,-29.10627 49.8475,-66.07811 60.75,-106.65625 10.86409,-31.83036 7.80505,-59.16008 14.2495,-83.3125 C 270.78073,105.85679 248.82317,62.537245 230.40625,36 l -81.125,5.9375 c -2.81789,0.0082 -5.65149,-0.03014 -8.46875,-0.09375 -2.81726,0.06361 -5.65086,0.101911 -8.46875,0.09375 z"
       id="path3972"
       inkscape:connector-curvature="0"
       sodipodi:nodetypes="ccccccccccccc"
       transform="translate(9.784082,17.362098)" />
  </g>
  <g
     inkscape:groupmode="layer"
     id="layer3"
     inkscape:label="Skin Shadow"
     style="opacity:0.08298753;display:inline"
     transform="translate(14.606212,6.6240006)"
     sodipodi:insensitive="true">
    <path
       style="fill:#000000;fill-opacity:1;stroke:none;display:inline"
       d="m 30.949267,114.49383 c -2.282568,8.64529 -3.813894,17.50521 -4.373877,26.56463 -4.397838,33.15315 -2.522926,67.59014 8.341168,99.4205 10.902505,40.57814 28.685729,80.4588 59.269117,109.56507 15.794765,15.57845 37.850245,18.18787 59.663375,16.84559 -13.05681,-4.21978 -33.31455,-7.03207 -50.546,-24.50246 C 75.310304,314.00625 62.415313,277.66529 53.034265,241.37903 47.649926,220.5522 38.146947,161.42594 30.949267,114.49383 z"
       id="path3976"
       inkscape:connector-curvature="0"
       sodipodi:nodetypes="cccccssc" />
    <path
       style="fill:#000000;fill-opacity:1;stroke:none;display:inline"
       d="m 121.49889,235.64396 c 0.626,1.73993 3.91566,-7.24609 11.43368,-5.80047 7.36038,1.41532 7.32993,-1.51939 7.78673,-5.60045 0.05,-2.36105 1.87276,-57.80465 1.87276,-57.80465 l -6.83074,31.19212 c 0,0 -2.61612,16.07777 -7.36275,20.21202 -4.74662,4.13425 -8.36754,13.72163 -6.89968,17.80143 z"
       id="path3107"
       inkscape:connector-curvature="0"
       sodipodi:nodetypes="ssccczs" />
  </g>
  <g
     inkscape:groupmode="layer"
     id="layer1"
     inkscape:label="Lips"
     style="display:inline"
     transform="translate(17.266686,13.985908)"
     sodipodi:insensitive="true">
    <path
       style="fill:#f3ac9d;fill-opacity:1;stroke:none;display:inline"
       d="m 86.5,262 c 0,0 16.34812,12.20136 24.96875,15.875 8.62063,3.67364 16.99198,6.31127 25.875,6.3125 8.88302,10e-4 17.28562,-2.63886 25.90625,-6.3125 8.62063,-3.67364 24.9375,-15.875 24.9375,-15.875 0,0 -21.62709,5.82989 -30.15625,7.03125 -8.52916,1.20136 -13.76375,1.68673 -20.68247,1.68687 -6.91872,1.4e-4 -12.16337,-0.48551 -20.69253,-1.68687 C 108.12709,267.82989 86.5,262 86.5,262 z"
       transform="translate(10.594061,10)"
       id="path3974"
       inkscape:connector-curvature="0"
       sodipodi:nodetypes="cszscszsc" />
    <path
       style="fill:#640000;fill-opacity:0.58937198;stroke:none;display:inline"
       d="m 86.577993,261.97642 c 0,0 25.353857,14.61994 50.770787,14.62791 25.41693,0.008 50.68024,-14.62791 50.68024,-14.62791 0,0 -28.14382,16.57729 -50.68024,16.43616 -22.53642,-0.14113 -50.770787,-16.43616 -50.770787,-16.43616 z"
       id="path4005"
       inkscape:connector-curvature="0"
       transform="translate(10.594061,10)"
       sodipodi:nodetypes="czczc" />
  </g>
  <g
     inkscape:label="Nose"
     id="g4023"
     inkscape:groupmode="layer"
     style="opacity:0.8;display:inline"
     transform="translate(14.606212,6.6240006)"
     sodipodi:insensitive="true">
    <path
       sodipodi:nodetypes="czczc"
       inkscape:connector-curvature="0"
       id="path4025"
       d="m 170.06297,239.11934 c 0,0 -6.08808,-0.29507 -8.65933,0.60005 -2.57125,0.89512 -5.97702,4.3501 -5.97702,4.3501 0,0 1.64212,2.07648 4.78022,1.93569 3.1381,-0.14079 9.85613,-6.88584 9.85613,-6.88584 z"
       style="fill:#000000;fill-opacity:1;stroke:none;display:inline" />
    <path
       style="fill:#000000;fill-opacity:1;stroke:none;display:inline"
       d="m 129.20766,239.11934 c 0,0 6.08808,-0.29507 8.65933,0.60005 2.57125,0.89512 5.97702,4.3501 5.97702,4.3501 0,0 -1.64212,2.07648 -4.78022,1.93569 -3.1381,-0.14079 -9.85613,-6.88584 -9.85613,-6.88584 z"
       id="path3861"
       inkscape:connector-curvature="0"
       sodipodi:nodetypes="czczc" />
  </g>
  <g
     style="display:inline"
     inkscape:label="Eyes"
     id="g4083"
     inkscape:groupmode="layer"
     transform="translate(14.606212,6.6240006)"
     sodipodi:insensitive="true">
    <path
       sodipodi:nodetypes="czzccc"
       inkscape:connector-curvature="0"
       id="path4085"
       d="m 223.15964,172.96023 c 0,0 -6.97063,-7.34619 -11.72938,-9.00072 -4.75875,-1.65454 -10.23244,-1.68196 -15.4749,-0.20002 -5.24246,1.48194 -14.58781,9.20074 -14.58781,9.20074 l 21.98028,-5.60045 z"
       style="fill:#202020;fill-opacity:1;stroke:none" />
    <path
       sodipodi:nodetypes="czzczzzc"
       inkscape:connector-curvature="0"
       d="m 181.26899,173.02854 c 0,0 7.46318,-5.18659 12.81361,-6.2005 5.35043,-1.01392 12.60458,-1.22612 17.54479,-0.20002 4.94021,1.0261 11.63082,6.40052 11.63082,6.40052 0,0 -6.86393,3.50629 -11.03942,4.80038 -4.17549,1.2941 -9.79783,1.53509 -13.20788,1.2001 -3.41005,-0.335 -6.56568,-2.37873 -9.46236,-3.40028 -2.89667,-1.02154 -8.27956,-2.6002 -8.27956,-2.6002 z"
       style="fill:#ffffff;fill-opacity:1;stroke:none;display:inline"
       id="path4087" />
    <path
       inkscape:connector-curvature="0"
       id="path4089"
       d="m 202.72563,165.89123 c -2.7355,0.0455 -5.49384,0.40275 -7.94691,0.80788 -0.98628,1.3751 -1.5709,2.9017 -1.5709,4.66131 0,3.15581 1.82252,5.92883 4.58949,7.48214 0.30708,0.057 0.61275,0.11998 0.92406,0.15059 3.24222,0.35849 6.91225,0.2163 9.85028,-0.33595 2.50774,-1.59272 4.13376,-4.32031 4.13376,-7.29678 0,-1.79869 -0.6056,-3.45056 -1.6325,-4.84414 -2.42698,-0.47797 -5.34536,-0.67495 -8.34733,-0.62505 z"
       style="fill:#4977a6;fill-opacity:1;stroke:none;display:inline"
       sodipodi:nodetypes="ccscccsccc" />
    <path
       sodipodi:type="arc"
       style="fill:#202020;fill-opacity:1;fill-rule:nonzero;stroke:none"
       id="path4091"
       sodipodi:cx="111.7"
       sodipodi:cy="545.86218"
       sodipodi:rx="3.0999999"
       sodipodi:ry="2.5999999"
       d="m 113.29636,548.09095 c -1.46763,0.73944 -3.37209,0.34103 -4.25374,-0.88988 -0.88164,-1.23092 -0.40661,-2.82821 1.06101,-3.56765 1.46763,-0.73945 3.37209,-0.34103 4.25374,0.88988 0.88099,1.23 0.40739,2.82606 -1.05823,3.56624 L 111.7,545.86218 z"
       sodipodi:start="1.0298406"
       sodipodi:end="7.3119779"
       transform="matrix(-0.94043235,0,0,1.1376818,307.80361,-449.55693)" />
    <path
       style="fill:#202020;fill-opacity:1;stroke:none;display:inline"
       d="m 74.916014,172.96023 c 0,0 6.970634,-7.34619 11.729383,-9.00072 4.758748,-1.65454 10.232437,-1.68196 15.474903,-0.20002 5.24246,1.48194 14.5878,9.20074 14.5878,9.20074 l -21.980272,-5.60045 z"
       id="path4071"
       inkscape:connector-curvature="0"
       sodipodi:nodetypes="czzccc" />
    <path
       style="fill:#ffffff;fill-opacity:1;stroke:none;display:inline"
       d="m 116.80667,173.02854 c 0,0 -7.46318,-5.18659 -12.81361,-6.2005 -5.350437,-1.01392 -12.604587,-1.22612 -17.544796,-0.20002 -4.940209,1.0261 -11.630816,6.40052 -11.630816,6.40052 0,0 6.863926,3.50629 11.039419,4.80038 4.175492,1.2941 9.797829,1.53509 13.207876,1.2001 3.410047,-0.335 6.565687,-2.37873 9.462357,-3.40028 2.89668,-1.02154 8.27957,-2.6002 8.27957,-2.6002 z"
       id="path4064"
       inkscape:connector-curvature="0"
       sodipodi:nodetypes="czzczzzc" />
    <path
       style="fill:#4977a6;fill-opacity:1;stroke:none;display:inline"
       d="m 95.350028,165.89123 c 2.735499,0.0455 5.493832,0.40232 7.946902,0.80745 0.98628,1.3751 1.5709,2.90213 1.5709,4.66174 0,3.15581 -1.82252,5.91604 -4.58949,7.46935 -2.497354,0.55454 -7.851442,0.40033 -10.802475,-0.19263 -2.507742,-1.59272 -4.10562,-4.30025 -4.10562,-7.27672 0,-1.79869 0.605601,-3.45056 1.632503,-4.84414 2.426977,-0.47797 5.345356,-0.67495 8.347329,-0.62505 z"
       id="path4067"
       inkscape:connector-curvature="0"
       sodipodi:nodetypes="ccsccsccc" />
    <path
       transform="matrix(0.94043235,0,0,1.1376818,-10.121403,-449.55693)"
       sodipodi:end="7.3120169"
       sodipodi:start="1.0298406"
       d="m 113.29636,548.09095 c -1.46763,0.73944 -3.37209,0.34103 -4.25374,-0.88988 -0.88164,-1.23092 -0.40661,-2.82821 1.06101,-3.56765 1.46763,-0.73945 3.37209,-0.34103 4.25374,0.88988 0.88102,1.23003 0.40736,2.82614 -1.05833,3.56629 L 111.7,545.86218 z"
       sodipodi:ry="2.5999999"
       sodipodi:rx="3.0999999"
       sodipodi:cy="545.86218"
       sodipodi:cx="111.7"
       id="path4069"
       style="fill:#202020;fill-opacity:1;fill-rule:nonzero;stroke:none;display:inline"
       sodipodi:type="arc" />
  </g>
  <g
     inkscape:groupmode="layer"
     id="layer9"
     inkscape:label="Eyebrows"
     transform="translate(14.606212,6.6240006)"
     style="display:inline"
     sodipodi:insensitive="true">
    <path
       style="fill:#31231f;fill-opacity:1;stroke:none;display:inline"
       d="m 179.88906,133.15703 c -0.9343,1.5647 -0.0986,12.70102 -0.0986,12.70102 0,0 16.07884,-5.33532 35.77955,-2.90023 19.70071,2.43508 37.75087,11.00088 37.75087,11.00088 0,0 -11.26246,-14.12908 -36.56808,-19.30155 -25.30561,-5.17248 -35.92947,-3.06483 -36.86377,-1.50012 z"
       id="path4054"
       inkscape:connector-curvature="0"
       sodipodi:nodetypes="zczczz" />
    <path
       sodipodi:nodetypes="zczczz"
       inkscape:connector-curvature="0"
       id="path4060"
       d="m 121.14358,133.15703 c 1.23,1.66471 0.0986,12.70102 0.0986,12.70102 0,0 -16.07884,-5.33532 -35.779548,-2.90023 -19.700711,2.43508 -37.750871,11.00088 -37.750871,11.00088 0,0 11.262465,-14.12908 36.568076,-19.30155 25.305613,-5.17248 35.633773,-3.16484 36.863773,-1.50012 z"
       style="fill:#31231f;fill-opacity:1;stroke:none;display:inline" />
  </g>
  <g
     inkscape:groupmode="layer"
     id="layer6"
     inkscape:label="Hair"
     style="display:inline"
     transform="translate(14.606212,6.6240006)"
     sodipodi:insensitive="true">
    <path
       style="fill:#31231f;fill-opacity:1;stroke:#000000;stroke-width:3.97099996;stroke-linecap:butt;stroke-linejoin:bevel;stroke-miterlimit:4;stroke-opacity:1;stroke-dasharray:none"
       d="m 245.03125,102 c -20.72119,-0.0378 -49.39303,3.84671 -72.9375,14 -23.54448,10.15329 -36.97573,23.18744 -46.34375,38 -9.36802,14.81256 -17.86144,31.34251 -20.09375,65.5 -2.23231,34.1575 8.5,81.59375 8.5,81.59375 4.90131,-37.30822 8.00687,-93.89588 17.46232,-100.44974 0,0 12.30807,2.6834 13.17839,24.77385 23.54074,-19.27651 26.27988,-37.66866 26.27988,-37.66866 0,0 11.24719,-8.13115 41.57531,21.01222 -2.51649,-28.37895 7.65221,-18.39887 7.65221,-18.39887 0,0 22.86484,16.59211 64.61177,22.11038 -13.91919,-21.8985 0.79295,-28.20458 0.79295,-28.20458 0,0 19.14313,-0.19928 26.00712,39.45214 22.57085,-1.25965 23.18944,-32.60295 23.18944,-32.60295 0,0 14.90985,6.59568 19.94481,24.33008 5.03496,17.7344 11.26879,60.03492 12.89955,85.39613 0,0 9.53341,-37.35611 7.09375,-75.25 C 372.40409,187.69985 363.42598,168.35522 354.4375,153 c -8.98848,-15.35521 -19.70281,-29.55691 -42.375,-39 -22.6722,-9.44309 -46.31005,-11.96217 -67.03125,-12 z"
       id="path4066"
       inkscape:connector-curvature="0"
       sodipodi:nodetypes="sssscccccccccczcssss"
       transform="translate(-90.215918,-82.637902)" />
    <path
       style="fill:#000000"
       d=""
       id="path3900"
       inkscape:connector-curvature="0" />
  </g>
  <g
     transform="translate(14.606212,6.6240006)"
     inkscape:label="Glasses Shadow"
     inkscape:groupmode="layer"
     id="g3949"
     style="opacity:0.33000004;display:inline"
     sodipodi:insensitive="true">
    <g
       transform="matrix(0.98566241,0,0,1.0000805,-19.510445,-376.04612)"
       id="g3951">
      <path
         sodipodi:nodetypes="sssssssssscscsssscssssssssssss"
         inkscape:connector-curvature="0"
         id="path3953"
         d="m 101.46875,529.90625 c 3.68338,0.0133 7.67404,0.0791 11.71875,0.25 16.17885,0.68363 30.85723,4.37909 34.40625,5.78125 3.54902,1.40216 4.53773,2.06594 5.78125,4.40625 1.2435,2.34031 1.34411,4.30785 0.40625,10.59375 -0.93786,6.2859 -2.16815,12.20004 -4.40625,16.625 -2.2381,4.42496 -3.6569,7.20233 -7.1875,9.375 -3.5306,2.17267 -4.36412,2.57478 -13.21875,3.625 -8.85463,1.05022 -30.06598,-0.32426 -39.78125,-1.21875 -9.71527,-0.89449 -13.99807,-2.82027 -17.21875,-5 -3.22068,-2.17973 -4.96886,-5.9693 -6.1875,-10.1875 -1.21864,-4.2182 -3.40625,-18.21875 -3.40625,-18.21875 0,0 -1.32225,-9.1073 3.40625,-12.59375 4.7285,-3.48645 16.1875,-3 16.1875,-3 0,0 8.44985,-0.4774 19.5,-0.4375 z m 142.34375,0.375 c 11.05015,-0.0399 19.5,0.4375 19.5,0.4375 0,0 11.459,-0.48645 16.1875,3 4.7285,3.48645 3.40625,12.59375 3.40625,12.59375 0,0 -2.18761,14.00055 -3.40625,18.21875 -1.21864,4.2182 -2.96682,8.00777 -6.1875,10.1875 -3.22068,2.17973 -7.50348,4.10551 -17.21875,5 -9.71527,0.89449 -30.92662,2.26897 -39.78125,1.21875 -8.85463,-1.05022 -9.68815,-1.45233 -13.21875,-3.625 -3.5306,-2.17267 -4.9494,-4.95004 -7.1875,-9.375 -2.2381,-4.42496 -3.46839,-10.3391 -4.40625,-16.625 -0.93786,-6.2859 -0.83725,-8.25344 0.40625,-10.59375 1.24352,-2.34031 2.23223,-3.00409 5.78125,-4.40625 3.54902,-1.40216 18.22739,-5.09762 34.40625,-5.78125 4.04471,-0.17091 8.03537,-0.2367 11.71875,-0.25 z"
         style="fill:url(#radialGradient3818);fill-opacity:1;stroke:none" />
    </g>
  </g>
  <g
     style="display:inline"
     id="g4119"
     inkscape:groupmode="layer"
     inkscape:label="Glasses"
     transform="translate(14.606212,6.6240006)"
     sodipodi:insensitive="true">
    <g
       id="g4128"
       transform="matrix(0.98566241,0,0,1.0000805,-19.510445,-376.04612)">
      <path
         style="fill:#000000;fill-opacity:1;stroke:none"
         d="m 102.28125,525.71875 c -0.75771,0.0128 -1.09375,0.0312 -1.09375,0.0312 0,0 -18.13942,0.1815 -25.40625,0.59375 -7.26683,0.4123 -17.02745,0.5084 -19.40625,1.4063 -2.3788,0.8979 -3.61001,1.33062 -4.40625,3 -0.79624,1.66938 -0.09621,10.03678 0.21875,12.40625 0.31496,2.36947 5,5 5,5 l 4.78125,17.78125 c 0,0 0.40105,3.7427 4.625,9.8125 4.22395,6.0698 12.67178,6.80062 18.1875,7.40625 5.51572,0.60563 15.41005,1.4403 22.8125,1.78125 7.40245,0.34095 22.68095,-0.1643 26.59375,-1 3.9128,-0.8357 8.91317,-1.98721 10.78125,-3 1.86808,-1.01279 4.9143,-2.96995 7.625,-8.375 2.7107,-5.40505 7.375,-19.21875 7.375,-19.21875 0,0 1.56426,-4.47351 3.40625,-5.78125 1.3481,-0.95711 5.07008,-1.39742 7.175,-1.5875 2.10492,-0.19008 3.41411,-0.11006 5.325,0.2 1.91089,0.31006 4.55046,0.71119 6.03125,1.7625 1.84199,1.30774 3.40625,5.78125 3.40625,5.78125 0,0 4.6643,13.8137 7.375,19.21875 2.7107,5.40505 5.75692,7.36221 7.625,8.375 1.86808,1.01279 6.86845,2.1643 10.78125,3 3.9128,0.8357 19.1913,1.34095 26.59375,1 7.40245,-0.34095 17.29678,-1.17562 22.8125,-1.78125 5.51572,-0.60563 13.96355,-1.33645 18.1875,-7.40625 4.22395,-6.0698 4.625,-9.8125 4.625,-9.8125 l 4.78125,-17.78125 c 0,0 4.68504,-2.63053 5,-5 0.31496,-2.36947 1.01499,-10.73687 0.21875,-12.40625 -0.79624,-1.66938 -2.02745,-2.1021 -4.40625,-3 -2.3788,-0.8979 -12.13942,-0.994 -19.40625,-1.40625 -7.26683,-0.41225 -25.40625,-0.59375 -25.40625,-0.59375 0,0 -1.34289,-0.0712 -4.71875,-0.0312 -3.37586,0.04 -8.77846,0.18485 -16.875,0.625 -16.19309,0.8803 -36.9395,7.19225 -39.1875,7.59375 -1.59674,0.28518 -5.93454,0.27949 -7.86875,0.25 l -5.475,0.0125 c 0,0 -5.752,-0.236 -8,-0.6375 -2.248,-0.4015 -22.99441,-6.71345 -39.1875,-7.59375 -8.09653,-0.44015 -13.49914,-0.585 -16.875,-0.625 -1.68793,-0.02 -2.86729,-0.0128 -3.625,0 z m -0.8125,4.1875 c 3.68338,0.0133 7.67404,0.0791 11.71875,0.25 16.17885,0.68363 30.85723,4.37909 34.40625,5.78125 3.54902,1.40216 4.53773,2.06594 5.78125,4.40625 1.2435,2.34031 1.34411,4.30785 0.40625,10.59375 -0.93786,6.2859 -2.16815,12.20004 -4.40625,16.625 -2.2381,4.42496 -3.6569,7.20233 -7.1875,9.375 -3.5306,2.17267 -4.36412,2.57478 -13.21875,3.625 -8.85463,1.05022 -30.06598,-0.32426 -39.78125,-1.21875 -9.71527,-0.89449 -13.99807,-2.82027 -17.21875,-5 -3.22068,-2.17973 -4.96886,-5.9693 -6.1875,-10.1875 -1.21864,-4.2182 -3.40625,-18.21875 -3.40625,-18.21875 0,0 -1.32225,-9.1073 3.40625,-12.59375 4.7285,-3.48645 16.1875,-3 16.1875,-3 0,0 8.44985,-0.4774 19.5,-0.4375 z m 142.34375,0.375 c 11.05015,-0.0399 19.5,0.4375 19.5,0.4375 0,0 11.459,-0.48645 16.1875,3 4.7285,3.48645 3.40625,12.59375 3.40625,12.59375 0,0 -2.18761,14.00055 -3.40625,18.21875 -1.21864,4.2182 -2.96682,8.00777 -6.1875,10.1875 -3.22068,2.17973 -7.50348,4.10551 -17.21875,5 -9.71527,0.89449 -30.92662,2.26897 -39.78125,1.21875 -8.85463,-1.05022 -9.68815,-1.45233 -13.21875,-3.625 -3.5306,-2.17267 -4.9494,-4.95004 -7.1875,-9.375 -2.2381,-4.42496 -3.46839,-10.3391 -4.40625,-16.625 -0.93786,-6.2859 -0.83725,-8.25344 0.40625,-10.59375 1.24352,-2.34031 2.23223,-3.00409 5.78125,-4.40625 3.54902,-1.40216 18.22739,-5.09762 34.40625,-5.78125 4.04471,-0.17091 8.03537,-0.2367 11.71875,-0.25 z"
         id="path4123"
         inkscape:connector-curvature="0"
         sodipodi:nodetypes="scssssccsssssscszzscssssssccsssscsssccssssssssssssssscscsssscssssssssssss" />
    </g>
    <path
       transform="matrix(0.45295059,-0.89153562,0.83670573,0.54765274,0,0)"
       style="fill:#000000;fill-opacity:1;stroke:none;display:inline"
       d="m -148.00707,104.03675 35.57158,-5.117664 -11.14959,7.132104 -31.20749,3.83601 z"
       id="rect3865"
       inkscape:connector-curvature="0"
       sodipodi:nodetypes="ccccc" />
    <path
       sodipodi:nodetypes="ccccc"
       inkscape:connector-curvature="0"
       id="path3892"
       d="m 281.18254,188.92959 -11.8302,-34.51604 -0.91726,13.84618 11.21022,31.20308 z"
       style="fill:#000000;fill-opacity:1;stroke:none;display:inline" />
  </g>
  <g
     style="opacity:0.8;display:inline"
     id="g3959"
     inkscape:groupmode="layer"
     inkscape:label="Glasses Highlight"
     transform="translate(14.606212,6.6240006)"
     sodipodi:insensitive="true">
    <g
       id="g3961"
       transform="matrix(0.98566241,0,0,1.0000805,-19.510445,-376.04612)">
      <path
         style="fill:url(#linearGradient3830);fill-opacity:1;stroke:none;filter:url(#filter3891)"
         d="m 117.9375,532.59375 c 13.95589,2.78615 29.0424,11.38242 32.4375,25.8125 0.5413,-6.00358 4.63337,-14.22511 -0.34375,-19.125 -10.159,-4.76523 -21.93702,-5.68797 -33.0625,-6.90625 l 0.96875,0.21875 z"
         id="path3987"
         inkscape:connector-curvature="0" />
      <path
         style="fill:url(#linearGradient3838);fill-opacity:1;stroke:none;filter:url(#filter3895)"
         d="m 241.03125,532.3125 c -5.72768,0.0598 -11.46668,0.20353 -17.15625,0.90625 17.66643,0.81698 37.83397,1.97908 51.21875,14.84375 1.78839,1.96118 3.36819,4.16976 4.375,6.625 0.7882,-6.27103 4.3618,-16.03399 -2.40625,-20.09375 -10.52127,-3.30863 -22.22149,-1.59348 -33.25,-2.3125 -0.92708,0.0104 -1.85417,0.0208 -2.78125,0.0312 z"
         id="path3963"
         inkscape:connector-curvature="0" />
    </g>
  </g>
</svg>
