<?xml version="1.0" encoding="UTF-8" standalone="no"?>
<!-- Created with Inkscape (http://www.inkscape.org/) -->

<svg
   xmlns:dc="http://purl.org/dc/elements/1.1/"
   xmlns:cc="http://creativecommons.org/ns#"
   xmlns:rdf="http://www.w3.org/1999/02/22-rdf-syntax-ns#"
   xmlns:svg="http://www.w3.org/2000/svg"
   xmlns="http://www.w3.org/2000/svg"
   xmlns:sodipodi="http://sodipodi.sourceforge.net/DTD/sodipodi-0.dtd"
   xmlns:inkscape="http://www.inkscape.org/namespaces/inkscape"
   width="50"
   height="50"
   id="svg2"
   version="1.1"
   inkscape:version="0.48.2 r9819"
   sodipodi:docname="grid.svg">
  <defs
     id="defs4" />
  <sodipodi:namedview
     id="base"
     pagecolor="#ffffff"
     bordercolor="#666666"
     borderopacity="1.0"
     inkscape:pageopacity="0.0"
     inkscape:pageshadow="2"
     inkscape:zoom="9.2271872"
     inkscape:cx="35.047372"
     inkscape:cy="23.107789"
     inkscape:document-units="px"
     inkscape:current-layer="layer2"
     showgrid="false"
     fit-margin-top="0"
     fit-margin-left="0"
     fit-margin-right="0"
     fit-margin-bottom="0"
     inkscape:window-width="1280"
     inkscape:window-height="756"
     inkscape:window-x="0"
     inkscape:window-y="0"
     inkscape:window-maximized="0" />
  <metadata
     id="metadata7">
    <rdf:RDF>
      <cc:Work
         rdf:about="">
        <dc:format>image/svg+xml</dc:format>
        <dc:type
           rdf:resource="http://purl.org/dc/dcmitype/StillImage" />
        <dc:title />
      </cc:Work>
    </rdf:RDF>
  </metadata>
  <g
     inkscape:groupmode="layer"
     id="layer2"
     inkscape:label="Minor"
     style="display:inline">
    <path
       id="rect3810"
       style="fill:#7f7f7f;fill-opacity:1;stroke:none"
       d="m 40,0 1,0 0,50 -1,0 z m -10,0 1,0 0,50 -1,0 z m -10,0 1,0 0,50 -1,0 z m -10,0 1,0 0,50 -1,0 z m -10,40 50,0 0,1 -50,0 z m 0,-10 50,0 0,1 -50,0 z m 0,-10 50,0 0,1 -50,0 z m 0,-10 50,0 0,1 -50,0 z" />
  </g>
  <g
     inkscape:label="Major"
     inkscape:groupmode="layer"
     id="layer1"
     transform="translate(-45,-301.36218)"
     style="display:inline">
    <path
       id="rect3785"
       style="fill:#000000;fill-opacity:1;stroke:none;display:inline"
       d="M 0,0 1,0 1,50 0,50 z M 0,0 50,0 50,1 0,1 z"
       transform="translate(45,301.36218)"
       inkscape:connector-curvature="0" />
  </g>
</svg>
