<?xml version="1.0" encoding="UTF-8" standalone="no"?>
<!-- Created with Inkscape (http://www.inkscape.org/) -->

<svg
   xmlns:dc="http://purl.org/dc/elements/1.1/"
   xmlns:cc="http://creativecommons.org/ns#"
   xmlns:rdf="http://www.w3.org/1999/02/22-rdf-syntax-ns#"
   xmlns:svg="http://www.w3.org/2000/svg"
   xmlns="http://www.w3.org/2000/svg"
   xmlns:sodipodi="http://sodipodi.sourceforge.net/DTD/sodipodi-0.dtd"
   xmlns:inkscape="http://www.inkscape.org/namespaces/inkscape"
   width="697.01709"
   height="144.90291"
   id="svg2"
   version="1.1"
   inkscape:version="0.48.2 r9819"
   sodipodi:docname="signature.svg"
   inkscape:export-filename="/Users/steven/Desktop/signature.png"
   inkscape:export-xdpi="100.61909"
   inkscape:export-ydpi="100.61909">
  <defs
     id="defs4">
    <inkscape:path-effect
       effect="knot"
       id="path-effect3008"
       is_visible="true"
       interruption_width="3"
       prop_to_stroke_width="true"
       add_stroke_width="true"
       add_other_stroke_width="true"
       switcher_size="15.2"
       crossing_points_vector="400.5 | 634.21875 | 0 | 0 | 0 | 1 | 63 | 63.000386 | 1 | 435.875 | 664.15625 | 0 | 0 | 2 | 3 | 70.999771 | 71.000232 | 1 | 444.6875 | 641.68754 | 0 | 0 | 4 | 7 | 208.99914 | 209 | 1 | 444.6875 | 641.68755 | 0 | 0 | 5 | 6 | 208.99966 | 209 | 1 | 424.28125 | 656.62505 | 0 | 0 | 0 | 9 | 210 | 210.00044 | 1 | 424.28125 | 656.62505 | 0 | 0 | 8 | 10 | 210 | 210.00132 | 1 | 261.5937 | 613.87495 | 0 | 0 | 12 | 13 | 290.99951 | 290.99962 | 1 | 261.5937 | 613.87495 | 0 | 0 | 14 | 15 | 290.99973 | 290.99998 | 1 | 261.5937 | 613.87495 | 0 | 0 | 11 | 16 | 290.9984 | 291 | 1 | 174.8125 | 577.7813 | 2 | 2 | 0 | 1 | 14 | 14.003434 | 1" />
    <inkscape:path-effect
       effect="rough_hatches"
       id="path-effect3006"
       is_visible="true"
       direction="383.49802,629.40455 , 174.25427,0"
       dist_rdm="20;1"
       growth="0"
       do_bend="true"
       bender="383.49802,634.40455 , 5,0"
       bottom_edge_variation="14.490292;1"
       top_edge_variation="14.490292;1"
       bottom_tgt_variation="0;1"
       top_tgt_variation="0;1"
       scale_bf="1"
       scale_bb="1"
       scale_tf="1"
       scale_tb="1"
       top_smth_variation="0;1"
       bottom_smth_variation="0;1"
       fat_output="true"
       stroke_width_top="1"
       stroke_width_bottom="1"
       front_thickness="1"
       back_thickness="0.25" />
    <inkscape:path-effect
       effect="gears"
       id="path-effect3004"
       is_visible="true"
       teeth="10"
       phi="5.2" />
    <inkscape:path-effect
       effect="envelope"
       id="path-effect3002"
       is_visible="false"
       yy="true"
       xx="true"
       bendpath1="m 34.989485,561.9531 697.017075,0"
       bendpath2="m 732.00656,561.9531 0,144.90291"
       bendpath3="m 34.989485,706.85601 697.017075,0"
       bendpath4="m 34.989485,561.9531 0,144.90291" />
    <inkscape:path-effect
       effect="construct_grid"
       id="path-effect3000"
       is_visible="true"
       nr_x="6"
       nr_y="14" />
    <inkscape:path-effect
       effect="vonkoch"
       id="path-effect2998"
       is_visible="true"
       ref_path="m 34.989485,634.40455 697.017075,0"
       generator="m 34.989485,706.85601 232.339025,0 m 232.33902,0 232.33903,0"
       similar_only="false"
       nbgenerations="8"
       drawall="true"
       maxComplexity="1000" />
    <inkscape:path-effect
       effect="sketch"
       id="path-effect2996"
       is_visible="true"
       nbiter_approxstrokes="25"
       strokelength="100"
       strokelength_rdm="0.3;1"
       strokeoverlap="0.3"
       strokeoverlap_rdm="0.3;1"
       ends_tolerance="0.1;1"
       parallel_offset="5;1"
       tremble_size="5;1"
       tremble_frequency="1"
       nbtangents="5"
       tgt_places_rdmness="1;1"
       tgtscale="10"
       tgtlength="100"
       tgtlength_rdm="0.3;1" />
    <inkscape:path-effect
       effect="bend_path"
       id="path-effect2994"
       is_visible="true"
       bendpath="m 34.989485,634.40455 697.017075,0"
       prop_scale="1.26"
       scale_y_rel="false"
       vertical="false" />
  </defs>
  <sodipodi:namedview
     id="base"
     pagecolor="#ffffff"
     bordercolor="#666666"
     borderopacity="1.0"
     inkscape:pageopacity="0"
     inkscape:pageshadow="2"
     inkscape:zoom="1.5266191"
     inkscape:cx="332.48759"
     inkscape:cy="37.472793"
     inkscape:document-units="px"
     inkscape:current-layer="layer1"
     showgrid="false"
     showguides="true"
     inkscape:guide-bbox="true"
     showborder="true"
     fit-margin-top="0"
     fit-margin-left="0"
     fit-margin-right="0"
     fit-margin-bottom="0"
     borderlayer="false"
     inkscape:showpageshadow="false"
     inkscape:window-width="1263"
     inkscape:window-height="731"
     inkscape:window-x="28"
     inkscape:window-y="13"
     inkscape:window-maximized="0" />
  <metadata
     id="metadata7">
    <rdf:RDF>
      <cc:Work
         rdf:about="">
        <dc:format>image/svg+xml</dc:format>
        <dc:type
           rdf:resource="http://purl.org/dc/dcmitype/StillImage" />
        <dc:title></dc:title>
      </cc:Work>
    </rdf:RDF>
  </metadata>
  <g
     inkscape:label="Layer 1"
     inkscape:groupmode="layer"
     id="layer1"
     transform="translate(-34.989481,-561.9531)">
    <g
       style="font-size:40px;font-style:normal;font-weight:normal;line-height:125%;letter-spacing:0px;word-spacing:0px;fill:#000000;fill-opacity:1;stroke:none;font-family:Sans"
       id="text2985"
       transform="matrix(0.99849867,-0.05477591,0.05477591,0.99849867,-55.411086,150.64804)" />
    <g
       style="font-size:40px;font-style:normal;font-weight:normal;line-height:125%;letter-spacing:0px;word-spacing:0px;fill:#000000;fill-opacity:1;stroke:none;font-family:Sans"
       id="text3002"
       transform="matrix(0.99849867,-0.05477591,0.05477591,0.99849867,318.93415,-9.2595223)">
      <path
         style="font-size:144px;font-variant:normal;font-stretch:normal;font-family:Pacifico;-inkscape-font-specification:Pacifico"
         d="m 175.5,561.96875 c -3.13594,0.17216 -6.049,1.75398 -8.75,4.71875 -2.70361,2.91822 -5.13288,6.76419 -7.3125,11.53125 -2.13543,4.7179 -4.04781,10.10433 -5.6875,16.15625 -1.59548,6.00275 -2.83291,12.17464 -3.75,18.5625 -0.46293,0.11937 -1.33003,0.24324 -2.59375,0.3125 -1.2195,0.02 -2.62482,0.022 -4.21875,0.0625 -1.54712,0.038 -3.17705,0.13952 -4.90625,0.28125 -1.68496,0.0925 -3.23369,0.28277 -4.625,0.59375 -1.4381,0.31369 -2.57645,0.78019 -3.4375,1.34375 -0.9104,0.51947 -1.36384,1.22023 -1.3125,2.15625 0.0231,0.42132 0.076,0.95667 0.15625,1.5625 0.0776,0.55916 0.28212,1.11007 0.59375,1.65625 0.30909,0.49951 0.77469,0.9247 1.40625,1.3125 0.62901,0.34112 1.52524,0.57753 2.65625,0.65625 2.54286,0.14225 4.46045,0.25973 5.78125,0.375 1.36761,0.11282 2.491,0.23406 3.34375,0.375 0.89699,0.0917 1.7096,0.19767 2.46875,0.34375 0.80337,0.0968 1.92933,0.20238 3.34375,0.3125 -0.24922,3.15908 -0.40933,6.33576 -0.46875,9.53125 -0.0594,3.1956 -0.0291,6.22302 0.125,9.03125 0.39541,7.20795 1.20113,13.66685 2.40625,19.375 1.25189,5.70564 2.91998,10.52815 4.96875,14.5 2.04618,3.92507 4.4797,6.90216 7.3125,8.90625 2.83275,2.00409 6.03657,2.91389 9.59375,2.71875 1.73174,-0.095 3.6172,-0.54169 5.6875,-1.3125 2.11703,-0.77337 4.48218,-1.88429 7.125,-3.34375 2.68953,-1.46201 5.7537,-3.27913 9.15625,-5.4375 2.18613,-1.38678 4.64165,-2.97669 7.21875,-4.65625 0.90755,1.48827 1.93466,2.87614 3.09375,4.15625 2.34616,2.54719 5.19886,4.52588 8.5625,5.9375 3.4104,1.40906 7.3191,1.99136 11.71875,1.75 2.80825,-0.15406 5.56867,-0.61761 8.25,-1.375 2.72548,-0.80675 5.31025,-1.76914 7.78125,-2.9375 2.51515,-1.21772 4.87473,-2.57934 7.09375,-4.0625 2.26571,-1.48571 4.37688,-2.98544 6.3125,-4.5 0.0586,-0.0464 0.12903,-0.0784 0.1875,-0.125 0.35631,1.69042 0.81934,3.26575 1.40625,4.75 0.8644,2.06513 2.08146,3.77178 3.65625,5.09375 1.5722,1.27517 3.72281,1.83642 6.4375,1.6875 1.63814,-0.0899 3.31926,-0.93336 5.0625,-2.53125 1.78742,-1.64725 3.52429,-3.73157 5.21875,-6.21875 1.74121,-2.48973 3.3987,-5.23755 4.96875,-8.28125 1.56998,-3.04368 2.95293,-6.02349 4.15625,-8.90625 0.14433,1.77603 0.66122,3.46545 1.5,5.0625 0.8855,1.59453 2.03949,3.01394 3.46875,4.25 1.47599,1.23351 3.20927,2.18718 5.21875,2.875 2.05364,0.63848 4.34749,0.88866 6.875,0.75 2.99544,-0.16431 6.10031,-0.90014 9.3125,-2.25 1.12444,-0.46663 2.22111,-1.00267 3.3125,-1.5625 0.93839,1.56999 2.0354,3.00233 3.25,4.34375 2.34616,2.54719 5.19886,4.55713 8.5625,5.96875 3.4104,1.40906 7.3191,1.99136 11.71875,1.75 2.80825,-0.15406 5.53742,-0.61761 8.21875,-1.375 2.72548,-0.80675 5.3415,-1.80039 7.8125,-2.96875 2.51515,-1.21772 4.87473,-2.57934 7.09375,-4.0625 2.06601,-1.35476 3.9897,-2.715 5.78125,-4.09375 0.0704,0.55417 0.13108,1.11192 0.21875,1.65625 0.32902,1.71894 0.81451,3.2855 1.5,4.65625 0.72972,1.32139 1.72116,2.34671 2.9375,3.125 1.21375,0.73149 2.7685,1.04277 4.6875,0.9375 1.54453,-0.0847 2.89963,-0.48374 4.03125,-1.25 1.08734,-0.71689 2.06243,-2.10528 2.9375,-4.125 l 16.375,-37.5 c 0,0 1.30314,-2.8251 1.125,-0.0625 -0.17814,1.88761 -0.61783,7.29692 -0.8125,10.59375 -0.19731,3.25009 -0.2166,6.2855 -0.0625,9.09375 0.39281,7.16112 1.56277,12.56938 3.5,16.21875 1.98138,3.59999 4.2382,5.32872 6.8125,5.1875 2.57421,-0.14122 5.01329,-0.65399 7.3125,-1.53125 0.87639,-0.2828 3.0953,-1.34906 6.65625,-3.1875 1.46173,-0.73741 10.84375,-6.375 10.84375,-6.375 0,0 5.67532,-3.64505 8.34375,-5.65625 0.25387,3.62171 0.7518,7.24248 1.5,10.875 0.87864,4.03607 2.01003,7.94755 3.4375,11.71875 1.47169,3.72185 3.258,7.18583 5.3125,10.40625 2.05447,3.22042 4.38326,5.99918 7,8.34375 2.66351,2.34198 5.58385,4.14032 8.75,5.375 3.21548,1.2789 6.6931,1.79915 10.4375,1.59375 5.05486,-0.27731 9.23199,-2.00201 12.53125,-5.1875 3.34597,-3.18807 6.0172,-7.67958 8,-13.46875 2.02949,-5.79173 3.50875,-12.76325 4.46875,-20.9375 0.95731,-8.221 1.62615,-17.47964 2,-27.78125 l 4.4375,-0.25 c 1.82531,-0.10008 3.37807,0.6631 4.6875,2.28125 1.30928,1.61826 2.4904,3.78736 3.53125,6.5 1.04071,2.71274 2.00896,5.82515 2.90625,9.34375 0.94136,3.46929 1.92335,7.03618 2.96875,10.6875 1.04525,3.65138 2.24396,7.22325 3.5625,10.71875 1.31579,3.44873 2.8822,6.48722 4.71875,9.15625 1.83636,2.66904 3.98918,4.78974 6.46875,6.34375 2.52618,1.55146 5.48941,2.21869 8.90625,2.03125 3.04219,-0.16689 6.00895,-0.6543 8.875,-1.46875 2.91263,-0.81703 5.65149,-1.77956 8.21875,-2.90625 2.56701,-1.12668 4.91105,-2.33677 7,-3.625 1.45407,-0.84602 2.69748,-1.63101 3.875,-2.375 2.79186,1.22537 5.97305,1.76113 9.59375,1.5625 2.85506,-0.15662 5.52644,-0.78469 8,-1.90625 2.47349,-1.12154 4.73618,-2.57449 6.75,-4.375 2.06054,-1.80307 3.83136,-3.89795 5.34375,-6.28125 1.5591,-2.38585 2.83293,-4.9423 3.8125,-7.625 1.02628,-2.68523 1.76429,-5.43956 2.21875,-8.28125 0.45435,-2.84162 0.62018,-5.64475 0.46875,-8.40625 -0.20804,-3.79114 -0.75866,-7.16797 -1.625,-10.125 -0.82221,-3.0063 -1.99379,-5.82849 -3.5,-8.46875 l 0.53125,-0.8125 c 1.74654,1.03093 3.84853,2.34972 6.28125,3.90625 2.43004,1.50983 4.8882,3.36896 7.40625,5.625 2.56472,2.25357 4.98908,4.30861 7.25,6.15625 0.63599,0.51979 1.21684,1.02983 1.78125,1.53125 -1.20139,1.5282 -2.43917,2.88321 -3.65625,4.125 -1.55601,1.58765 -3.5647,3.57837 -6.0625,5.96875 -0.35647,0.3482 -0.90695,0.83479 -1.625,1.4375 -0.71806,0.60277 -1.41721,1.30381 -2.125,2.09375 -0.70779,0.78998 -1.30476,1.70507 -1.8125,2.71875 -0.5103,0.96692 -0.74912,2.00171 -0.6875,3.125 0.0693,1.26374 0.27441,2.2196 0.59375,2.90625 0.31677,0.63987 0.70148,1.13556 1.1875,1.4375 0.48345,0.25516 1.06092,0.36412 1.71875,0.375 0.65783,0.0109 1.37613,0.01 2.125,-0.0312 0.60846,-0.0334 1.2066,-0.076 1.8125,-0.15625 0.6527,-0.0827 1.28994,-0.22987 1.9375,-0.40625 0.37267,2.51462 1.18536,4.62681 2.40625,6.34375 1.22087,1.71695 2.75354,3.09927 4.59375,4.125 1.88442,0.97637 4.0222,1.64734 6.4375,2.03125 2.41525,0.3839 4.9885,0.49523 7.75,0.34375 3.83795,-0.21055 7.88071,-0.83011 12.09375,-1.90625 4.2572,-1.1255 8.4165,-2.55497 12.5,-4.28125 4.13019,-1.72882 8.03536,-3.70122 11.71875,-5.875 1.24336,-0.72544 2.42485,-1.46781 3.5625,-2.21875 0.43897,1.70749 1.09648,3.19813 2,4.46875 1.22087,1.71695 2.75354,3.06802 4.59375,4.09375 1.88442,0.97637 4.0222,1.67859 6.4375,2.0625 2.41525,0.3839 5.01975,0.49523 7.78125,0.34375 31.30996,-5.93343 17.85951,-31.86563 16.34375,-51.125 0.11213,-0.5225 0.5891,-1.32514 1.46875,-2.40625 0.92379,-1.13037 1.89902,-2.33342 2.90625,-3.65625 1.00713,-1.32272 1.93512,-2.68757 2.75,-4.09375 0.81477,-1.40606 1.18657,-2.68913 1.125,-3.8125 -0.0309,-0.56158 -0.11535,-1.19369 -0.25,-1.9375 -0.13732,-0.79048 -0.52488,-1.51617 -1.125,-2.1875 -0.60022,-0.67118 -1.50746,-1.22364 -2.75,-1.625 -1.24522,-0.44802 -3.00342,-0.62317 -5.25,-0.5 -1.35738,0.0745 -2.58734,0.36095 -3.6875,0.84375 -1.05601,0.43355 -2.03739,1.0122 -2.9375,1.71875 -0.85594,0.65731 -1.60731,1.41331 -2.3125,2.25 -0.70525,0.83682 -1.34404,1.68671 -1.90625,2.5625 -2.79011,3.90876 -5.04774,7.1824 -6.78125,9.8125 -1.73613,2.5834 -3.22199,4.75889 -4.4375,6.5625 -1.21555,1.80371 -2.27395,3.3699 -3.1875,4.6875 -0.86678,1.31512 -2.06601,3.02257 -3.59375,5.125 -1.53034,2.05569 -3.06901,3.88118 -4.625,5.46875 -5.59348,7.25088 -13.42384,12.8482 -21.25,15.8125 2.73356,-5.25451 -5.98195,-29.77016 -4.8125,-31.28125 0.11213,-0.5225 0.5891,-1.32514 1.46875,-2.40625 0.92379,-1.13037 1.89902,-2.36467 2.90625,-3.6875 1.00713,-1.32272 1.90387,-2.68757 2.71875,-4.09375 0.81477,-1.40606 1.21782,-2.65788 1.15625,-3.78125 -0.0309,-0.56158 -0.11535,-1.22494 -0.25,-1.96875 -0.13732,-0.79048 -0.52488,-1.51617 -1.125,-2.1875 -0.60022,-0.67118 -1.50746,-1.19239 -2.75,-1.59375 -1.24522,-0.44802 -3.00342,-0.62317 -5.25,-0.5 -1.35738,0.0745 -2.58734,0.36095 -3.6875,0.84375 -1.05601,0.43355 -2.03739,0.98095 -2.9375,1.6875 -0.85594,0.65731 -1.63856,1.41331 -2.34375,2.25 -0.70525,0.83682 -1.31279,1.68671 -1.875,2.5625 -2.79011,3.90876 -5.07899,7.1824 -6.8125,9.8125 -1.73613,2.5834 -3.19074,4.79014 -4.40625,6.59375 -1.21555,1.80371 -2.27395,3.3699 -3.1875,4.6875 -0.0466,0.0707 -0.10775,0.17704 -0.15625,0.25 l 0,-0.125 c -2.70213,-3.04402 -5.64005,-6.21386 -8.78125,-9.5625 -3.09452,-3.3511 -6.39501,-6.08145 -9.9375,-8.1875 -3.49837,-2.1553 -7.22831,-3.82446 -11.1875,-4.96875 -3.96185,-1.19095 -8.17859,-1.6501 -12.625,-1.40625 -5.19533,0.28508 -9.81468,1.47756 -13.875,3.625 -4.06292,2.10076 -7.46793,4.89274 -10.1875,8.375 -2.67536,3.433 -4.67069,7.45332 -5.96875,12.03125 -1.30063,4.53122 -1.77642,9.88433 -1.4375,16.0625 0.20541,3.7444 0.83224,7.42673 1.875,11.03125 0.6523,2.15645 1.47888,4.16254 2.46875,6.03125 -0.80175,0.52377 -1.6157,1.04126 -2.4375,1.5 -1.91199,1.09076 -3.79945,1.95809 -5.6875,2.625 -1.84406,0.61757 -3.565,0.97522 -5.15625,1.0625 -1.73188,0.095 -3.13266,-0.33927 -4.21875,-1.3125 -1.08886,-1.02001 -2.04678,-2.36922 -2.84375,-4.0625 -0.75293,-1.74261 -1.45319,-3.76605 -2.09375,-6.03125 -0.59653,-2.31453 -1.25299,-4.72464 -2,-7.21875 -0.7472,-2.49404 -1.65452,-5.02144 -2.6875,-7.59375 -0.98637,-2.57481 -2.28022,-4.99189 -3.90625,-7.25 -1.58198,-2.30739 -3.53875,-4.35789 -5.84375,-6.15625 -2.30517,-1.79825 -5.12575,-3.21275 -8.46875,-4.25 5.36448,-0.62285 10.16432,-1.62485 14.40625,-3.03125 4.23917,-1.45308 8.00878,-3.16149 11.28125,-5.125 3.27226,-1.96337 6.0486,-4.15361 8.3125,-6.53125 2.31048,-2.38006 4.18003,-4.8094 5.59375,-7.28125 1.41092,-2.51849 2.41833,-5.00944 3.03125,-7.53125 0.61266,-2.52164 0.84187,-4.90954 0.71875,-7.15625 -0.19013,-3.46345 -0.9338,-6.64408 -2.21875,-9.53125 -1.2852,-2.88696 -2.96587,-5.47069 -5.0625,-7.75 -2.05261,-2.32845 -4.49524,-4.37037 -7.3125,-6.09375 -2.77068,-1.72571 -5.76362,-3.12693 -8.96875,-4.21875 -3.20533,-1.09157 -6.53184,-1.87836 -10.03125,-2.34375 -3.49957,-0.46514 -7.02098,-0.5987 -10.53125,-0.40625 -7.91005,0.43405 -15.34505,1.90988 -22.34375,4.40625 -6.952,2.49404 -13.35772,5.81522 -19.1875,9.9375 -5.78562,4.07314 -10.9329,8.82157 -15.46875,14.28125 -4.53846,5.41306 -8.3597,11.29069 -11.4375,17.65625 -3.03101,6.36316 -5.27595,13.08229 -6.71875,20.15625 -0.38461,1.93179 -0.9375,5.84375 -0.9375,5.84375 l -20.40625,14.9375 c 0,0 -1.36131,1.00989 -2.875,1.65625 -1.00665,0.47775 -1.78215,0.71921 -2.34375,0.75 -1.54461,0.0847 -2.74223,-0.79387 -3.59375,-2.625 -0.80483,-1.83365 -1.30962,-4.19184 -1.46875,-7.09375 -0.0951,-1.73174 -0.10555,-3.64905 -0.0312,-5.71875 0.12099,-2.07221 0.28786,-4.15703 0.5,-6.28125 0.21204,-2.12413 0.45936,-4.53031 0.6875,-7.21875 0.27482,-2.69092 0.51474,-4.89077 0.75,-6.59375 0.23514,-1.70289 0.41073,-3.14776 0.53125,-4.375 0.16721,-1.2297 0.24694,-2.11009 0.21875,-2.625 -0.19006,-3.46348 -1.05058,-6.14242 -2.5625,-8.03125 -1.46523,-1.89126 -3.37856,-2.78456 -5.71875,-2.65625 -2.34028,0.12845 -4.44491,0.70871 -6.3125,1.75 -1.86768,1.04144 -3.45344,2.89045 -4.8125,5.5 -0.29685,0.57969 -0.75271,1.45025 -1.34375,2.65625 -0.59111,1.20612 -1.25783,2.59935 -1.96875,4.1875 -0.71355,1.54145 -1.46887,3.20123 -2.3125,4.9375 -0.79945,1.68699 -1.54121,3.61589 -2.21875,5.8125 -0.67759,2.1967 -1.29951,3.89029 -1.84375,5.09375 -0.54687,1.15672 -1.06122,2.26614 -1.1875,2.53125 -0.4505,0.80808 -1.39334,0.73796 -1.40625,0.0937 -0.009,-0.16379 0.005,-0.96242 0.0937,-1.90625 0.0865,-0.99056 0.16804,-2.44569 0.25,-4.375 0.12616,-1.97858 0.28562,-3.73937 0.4375,-5.25 0.14927,-1.55734 0.26478,-3.02304 0.375,-4.4375 0.1544,-1.46373 0.2675,-2.79088 0.34375,-3.96875 0.0737,-1.22456 0.10099,-2.20412 0.0625,-2.90625 -0.14125,-2.5742 -0.7449,-4.60305 -1.8125,-6.09375 -1.06766,-1.49057 -2.87883,-2.16983 -5.40625,-2.03125 -2.52747,0.13872 -4.4881,0.96696 -5.90625,2.5 -1.37136,1.53061 -2.25952,3.41256 -2.65625,5.59375 -0.50378,2.79749 -1.01106,6.13926 -1.5,10.0625 -0.48897,3.92334 -0.86163,8.35155 -1.15625,13.25 -0.22508,3.6743 -0.42125,7.04237 -0.5625,10.28125 -0.82669,0.76482 -1.68967,1.54039 -2.625,2.34375 -2.51328,2.1096 -5.20629,4.09081 -8.0625,5.9375 -2.8563,1.84675 -5.80076,3.42343 -8.875,4.71875 -3.02752,1.2928 -5.94175,2.00221 -8.75,2.15625 -0.88931,0.0488 -1.75657,0.0186 -2.5625,-0.125 -0.75917,-0.14611 -1.49104,-0.44546 -2.21875,-0.875 -0.72778,-0.42952 -1.47049,-1.03977 -2.21875,-1.84375 -0.7015,-0.80652 -1.44738,-1.83727 -2.21875,-3.0625 4.01036,-1.34667 7.70934,-3.10987 11.0625,-5.3125 3.39991,-2.20514 6.26998,-4.66206 8.65625,-7.375 2.38619,-2.71287 4.41922,-5.91829 6.09375,-9.625 1.72123,-3.70918 2.50289,-7.03557 2.34375,-9.9375 -0.1464,-2.66782 -0.72709,-5.02329 -1.78125,-7.125 -1.05425,-2.1016 -2.48292,-3.87586 -4.25,-5.28125 -1.72293,-1.45462 -3.7072,-2.5307 -6,-3.25 -2.29288,-0.71918 -4.75397,-1.01872 -7.375,-0.875 -3.22954,0.17724 -6.14636,0.93361 -8.75,2.25 -2.55945,1.26717 -4.86109,2.94741 -6.90625,5.03125 -2.00095,2.03459 -3.73738,4.36975 -5.1875,7.03125 -1.45272,2.6148 -2.64005,5.35147 -3.5625,8.21875 -1.97289,7.06386 -3.07883,13.84471 -3.3125,21 -0.44852,0.2271 -0.87953,0.47161 -1.34375,0.6875 -1.78693,0.80224 -3.37717,1.2355 -4.78125,1.3125 -1.91904,0.10531 -3.50489,-0.0831 -4.75,-0.53125 -1.24522,-0.44806 -2.25176,-1.071 -3,-1.875 -0.7509,-0.85075 -1.28517,-1.81387 -1.625,-2.875 -0.33993,-1.06107 -0.53218,-2.12666 -0.59375,-3.25 -0.0591,-1.07647 -0.0553,-2.13436 0.0312,-3.125 0.13068,-1.03993 0.27832,-1.94144 0.46875,-2.75 0.23199,-0.90465 0.48408,-1.79832 0.71875,-2.65625 0.23712,-0.81104 1.2648,-3.79827 3.09375,-8.96875 0.24483,-0.67062 0.91398,-2.23365 2,-4.6875 0.49999,-1.15406 0.89261,-2.46596 1.1875,-3.9375 0.31019,-1.1906 0.41559,-2.4394 0.34375,-3.75 -0.0951,-1.7317 -0.99034,-3.10703 -2.6875,-4.09375 -1.69984,-1.03337 -3.87913,-1.46135 -6.59375,-1.3125 -1.02975,0.0566 -2.01686,0.26164 -2.9375,0.59375 -0.87392,0.32968 -1.68309,0.74094 -2.40625,1.25 -0.7258,0.46239 -1.28413,0.99094 -1.71875,1.625 -0.43471,0.6342 -0.70806,1.30585 -0.8125,1.96875 l -16.59375,47.875 c -0.48731,1.40825 -0.95538,1.33443 -1,0.125 l 0.1875,-46.6875 c -0.11358,-1.21428 -0.62188,-2.26888 -1.5625,-3.15625 -0.89385,-0.8898 -2.15866,-1.30598 -3.75,-1.21875 -0.28084,0.0155 -0.5003,0.021 -0.6875,0.0312 -0.41613,0.11679 -0.62502,0.18757 -0.625,0.1875 l -8.34375,1.78125 c -1.48491,0.31625 -2.39963,1.85347 -2.71875,4.59375 -0.27489,2.69103 -0.24775,7.15004 0.0937,13.375 0.10271,1.87223 0.2306,3.69278 0.375,5.46875 0.14437,1.77605 0.32205,3.71146 0.53125,5.8125 0.25595,2.09854 0.5283,4.44917 0.8125,7.0625 0.13313,1.21323 0.2929,2.89012 0.4375,4.3125 -0.51944,0.46565 -1.03563,0.92688 -1.59375,1.40625 -2.51328,2.1096 -5.20629,4.09081 -8.0625,5.9375 -2.8563,1.84675 -5.83201,3.42343 -8.90625,4.71875 -3.02752,1.2928 -5.94175,2.00221 -8.75,2.15625 -0.88931,0.0488 -1.72532,-0.0127 -2.53125,-0.15625 -0.75917,-0.14611 -1.52229,-0.41421 -2.25,-0.84375 -0.72778,-0.42952 -1.47049,-1.03977 -2.21875,-1.84375 -0.7015,-0.80652 -1.41613,-1.83727 -2.1875,-3.0625 4.01036,-1.34667 7.67809,-3.10987 11.03125,-5.3125 3.39991,-2.20514 6.30123,-4.66206 8.6875,-7.375 2.38619,-2.71287 4.41922,-5.94954 6.09375,-9.65625 1.72123,-3.70918 2.50289,-7.00432 2.34375,-9.90625 -0.1464,-2.66782 -0.75834,-5.05454 -1.8125,-7.15625 -1.05425,-2.1016 -2.45167,-3.84461 -4.21875,-5.25 -1.72293,-1.45462 -3.73845,-2.5307 -6.03125,-3.25 -2.29288,-0.71918 -4.75397,-1.01872 -7.375,-0.875 -3.22954,0.17724 -6.14636,0.93361 -8.75,2.25 -2.55945,1.26717 -4.86109,2.91616 -6.90625,5 -2.00095,2.03459 -3.73738,4.401 -5.1875,7.0625 -1.45272,2.6148 -2.64005,5.35147 -3.5625,8.21875 -2.02798,7.40345 -2.96418,14.76106 -3.1875,22.15625 -0.62821,0.52763 -1.25401,1.0453 -1.90625,1.5625 -1.80035,1.41326 -3.65838,2.73762 -5.5625,3.96875 -1.85741,1.22861 -3.64268,2.30997 -5.375,3.25 -1.68816,0.8907 -3.27797,1.6373 -4.75,2.1875 -1.4253,0.54765 -2.61089,0.8211 -3.59375,0.875 -1.59139,0.0873 -3.07008,-0.0413 -4.40625,-0.4375 -1.292,-0.44551 -2.39543,-1.191 -3.34375,-2.21875 -0.95093,-1.0745 -1.71823,-2.48138 -2.28125,-4.1875 -0.56308,-1.70607 -0.92387,-3.81627 -1.0625,-6.34375 -0.0539,-0.98286 -0.0921,-2.04861 -0.15625,-3.21875 -0.0174,-1.17265 -0.04,-2.38992 -0.0625,-3.65625 -0.0226,-1.26625 -0.04,-2.54616 -0.0625,-3.8125 -0.0251,-1.31305 -0.0738,-2.56172 -0.0937,-3.78125 -0.0137,-2.81594 0.003,-5.68154 0.0312,-8.59375 1.09049,-1.51508 2.27146,-3.2094 3.53125,-5.0625 1.30397,-1.90235 2.58909,-3.83454 3.84375,-5.78125 l 26.9375,-1.46875 c 1.12325,-0.0616 2.15158,-0.63763 3.03125,-1.71875 0.87954,-1.08099 1.24605,-2.42427 1.15625,-4.0625 -0.0745,-1.35727 -0.34253,-2.4775 -0.8125,-3.34375 -0.47009,-0.86611 -1.15515,-1.31702 -2.09375,-1.3125 -0.7983,-0.003 -1.81183,0.0113 -3.03125,0.0312 -1.21954,0.02 -2.53085,0.0635 -3.9375,0.0937 -1.40676,0.0303 -2.87473,0.0584 -4.375,0.0937 -1.50293,-0.0114 -2.9057,-0.0251 -4.21875,0 -1.2689,-0.0243 -2.39214,0.009 -3.375,0.0625 -0.98294,0.054 -1.70123,0.055 -2.125,0.0312 1.53857,-2.76022 2.99488,-5.51559 4.34375,-8.3125 1.39558,-2.79932 2.58293,-5.56723 3.5625,-8.25 0.97691,-2.72939 1.73334,-5.37401 2.25,-7.9375 0.514,-2.6101 0.68826,-5.05023 0.5625,-7.34375 -0.14898,-2.71457 -0.61495,-5.30519 -1.40625,-7.75 -0.74715,-2.49396 -1.75848,-4.62938 -3.03125,-6.4375 -1.27287,-1.80787 -2.7847,-3.21899 -4.53125,-4.25 -1.69982,-1.03331 -3.54994,-1.51653 -5.5625,-1.40625 z m -82.65625,6.84375 c -0.60604,0.0105 -1.204049,0.0291 -1.8125,0.0625 -7.676021,0.42122 -14.330103,1.72095 -19.9375,3.90625 -5.607513,2.18556 -10.23521,4.90352 -13.90625,8.15625 -3.626886,3.20359 -6.291594,6.77561 -8,10.71875 -1.664242,3.89398 -2.403215,7.81851 -2.1875,11.75 0.231051,4.21251 1.351597,7.93077 3.3125,11.15625 2.005083,3.17626 4.529913,5.99397 7.625,8.5 3.141805,2.50361 6.679278,4.77392 10.59375,6.8125 3.911801,1.9919 7.895437,3.89064 11.9375,5.6875 4.041929,1.79698 8.007164,3.586 11.90625,5.34375 3.898933,1.75787 7.396731,3.66519 10.46875,5.75 3.11609,2.03554 5.6088,4.32031 7.53125,6.84375 1.96907,2.52096 3.0676,5.45816 3.25,8.78125 0.19761,3.60399 -0.64155,6.86259 -2.5,9.78125 -1.86119,2.8719 -4.34459,5.34135 -7.46875,7.4375 -3.12433,2.09617 -6.700742,3.76248 -10.71875,4.96875 -4.018147,1.20629 -8.053062,1.90163 -12.125,2.125 -3.463602,0.19002 -6.854463,0.009 -10.125,-0.5625 -3.270655,-0.5717 -6.184668,-1.56027 -8.75,-2.96875 -2.565421,-1.40845 -4.652592,-3.25761 -6.28125,-5.5625 -1.628736,-2.30485 -2.539055,-5.09865 -2.71875,-8.375 -0.0822,-1.49773 -0.05543,-2.88223 0.0625,-4.15625 0.117855,-1.27396 0.244231,-2.42875 0.375,-3.46875 0.174935,-1.08931 0.330278,-2.1004 0.46875,-3 0.138386,-0.89952 0.168612,-1.73552 0.125,-2.53125 -0.09504,-1.73172 -0.676687,-2.97952 -1.75,-3.71875 -1.029147,-0.78852 -2.283529,-1.14461 -3.78125,-1.0625 -1.450966,0.0797 -2.983711,0.58067 -4.625,1.46875 -1.643912,0.84135 -3.165061,2.06339 -4.53125,3.6875 -1.321993,1.57482 -2.424179,3.52769 -3.28125,5.875 -0.812865,2.29801 -1.133096,4.94204 -0.96875,7.9375 0.318366,5.80379 1.905683,10.81966 4.71875,15.03125 2.857251,4.16225 6.506069,7.56864 10.96875,10.1875 4.465178,2.66566 9.493735,4.55508 15.09375,5.65625 5.602491,1.14795 11.336856,1.5397 17.1875,1.21875 4.165536,-0.22852 8.297204,-0.83768 12.375,-1.8125 4.080213,-0.92802 7.92632,-2.17171 11.59375,-3.78125 3.66725,-1.60954 7.076,-3.57607 10.1875,-5.90625 3.1113,-2.33017 5.75122,-4.96959 7.9375,-7.90625 2.23286,-2.93921 3.92887,-6.19642 5.09375,-9.78125 1.16208,-3.63159 1.63723,-7.5688 1.40625,-11.78125 -0.2543,-4.63362 -1.38328,-8.71488 -3.40625,-12.21875 -1.97639,-3.50634 -4.56674,-6.59044 -7.71875,-9.28125 -3.10542,-2.69326 -6.61693,-5.05505 -10.53125,-7.09375 -3.87027,-2.08796 -7.82011,-4.00239 -11.90625,-5.75 -4.042073,-1.79685 -8.012442,-3.52322 -11.90625,-5.1875 -3.847141,-1.6667 -7.329084,-3.44859 -10.4375,-5.34375 -3.064285,-1.94437 -5.572394,-4.10371 -7.53125,-6.4375 -1.912138,-2.33619 -2.955582,-5.0358 -3.125,-8.125 -0.100182,-1.82528 0.276008,-3.6988 1.15625,-5.625 0.926952,-1.92858 2.397706,-3.70167 4.375,-5.3125 2.021427,-1.66 4.524693,-3.05058 7.5625,-4.15625 3.081921,-1.15481 6.75627,-1.8313 10.96875,-2.0625 3.791096,-0.20786 7.283833,-0.09 10.5,0.34375 3.21601,0.43397 5.96779,1.18769 8.28125,2.28125 2.3601,1.09121 4.2298,2.49406 5.59375,4.25 1.408,1.70679 2.18146,3.76931 2.3125,6.15625 0.0846,1.54464 -0.11678,3.23508 -0.625,5.09375 -0.51099,1.81204 -1.34934,3.77761 -2.5,5.90625 -1.23931,2.22756 -2.09337,4.2218 -2.5625,5.9375 -0.47188,1.66905 -0.69185,3.09566 -0.625,4.3125 0.0898,1.63823 0.6269,2.86263 1.5625,3.65625 0.93285,0.74696 2.09577,1.0771 3.5,1 1.87209,-0.10263 3.9085,-0.90747 6.125,-2.4375 2.26053,-1.57925 4.28961,-3.91214 6.09375,-6.96875 1.84559,-3.15262 3.13966,-6.14285 3.875,-9 0.78193,-2.85953 1.115,-5.6133 0.96875,-8.28125 -0.2466,-4.49314 -1.61314,-8.55057 -4.0625,-12.125 -2.40276,-3.57678 -5.48424,-6.59479 -9.28125,-9.0625 -3.79721,-2.46747 -8.08378,-4.30569 -12.84375,-5.5 -4.12417,-1.04704 -8.32022,-1.51096 -12.5625,-1.4375 z m 81.96875,8.96875 c 0.88925,-0.0487 1.60513,0.1201 2.09375,0.46875 0.53535,0.34631 0.92263,0.79504 1.1875,1.34375 0.2648,0.54893 0.44848,1.12865 0.53125,1.78125 0.12697,0.60343 0.19046,1.17276 0.21875,1.6875 0.0821,1.49785 -0.20774,3.42872 -0.875,5.8125 -0.66734,2.38398 -1.52579,4.96868 -2.59375,7.75 -1.0706,2.73472 -2.29704,5.54457 -3.6875,8.4375 -1.34628,2.84371 -2.66435,5.50476 -3.9375,7.96875 -0.75403,-0.0525 -1.4829,-0.0854 -2.1875,-0.0937 -0.70723,-0.055 -1.41782,-0.1011 -2.125,-0.15625 0.63449,-3.83731 1.33165,-7.7958 2.09375,-11.875 0.80886,-4.08159 1.68396,-7.80265 2.625,-11.1875 0.98522,-3.43402 2.02617,-6.28013 3.125,-8.5 1.14559,-2.22223 2.3143,-3.37063 3.53125,-3.4375 z m 348.625,7.34375 c 2.97632,0.0216 5.69746,0.33136 8.125,0.9375 3.23397,0.7616 5.97578,1.91756 8.21875,3.4375 2.24021,1.47335 3.9641,3.2342 5.15625,5.28125 1.23875,2.04469 1.90533,4.20666 2.03125,6.5 0.12828,2.34032 -0.3124,4.8147 -1.34375,7.40625 -1.03413,2.54492 -2.96376,4.95343 -5.75,7.21875 -2.78644,2.26548 -6.61583,4.23002 -11.5,5.90625 -4.88692,1.62957 -11.12863,2.72238 -18.75,3.28125 0.21063,-3.86101 0.47233,-7.25986 0.78125,-10.1875 0.35303,-2.97686 0.48824,-5.34378 0.4375,-7.125 l -0.0312,-0.625 c -0.0899,-1.63807 -0.55415,-2.95135 -1.40625,-3.9375 -0.80799,-1.03534 -2.37858,-1.50329 -4.71875,-1.375 -1.77864,0.0977 -3.27997,0.57258 -4.5,1.4375 -1.17589,0.81572 -2.18009,1.87508 -3,3.1875 -0.82258,1.2658 -1.46062,2.70597 -1.9375,4.28125 -0.43274,1.52607 -0.77013,3.04943 -0.96875,4.5625 -0.19871,1.51324 -0.33778,2.93184 -0.40625,4.25 -0.0218,1.31574 -0.0256,2.34238 -0.0312,3.09375 l 0.0312,1.46875 c -0.28088,0.0155 -0.90257,0.0111 -1.84375,-0.0312 -0.89703,-0.0916 -1.88459,-0.16856 -2.96875,-0.25 -1.08683,-0.12809 -2.13701,-0.24151 -3.125,-0.28125 -0.99064,-0.0864 -1.64116,-0.11165 -1.96875,-0.0937 -0.74892,0.0412 -1.33635,0.30316 -1.78125,0.75 -0.40073,0.39762 -0.70308,0.86308 -0.90625,1.4375 -0.20325,0.57457 -0.34863,1.21466 -0.40625,1.875 -0.0109,0.65789 0.006,1.21952 0.0312,1.6875 0.1078,1.96586 1.13936,3.63627 3.09375,5.03125 2.00111,1.39254 4.87919,2.84356 8.625,4.375 0.0591,1.07655 0.12126,2.65683 0.1875,4.71875 0.0636,2.01521 0.0746,4.33747 0.0312,6.96875 0.003,2.6288 -0.0711,5.45789 -0.1875,8.46875 -0.11655,3.01093 -0.31876,5.99441 -0.625,8.96875 -0.30634,2.97439 -0.73072,5.85629 -1.28125,8.65625 -0.5532,2.75321 -1.242,5.21746 -2.0625,7.375 -0.82317,2.11077 -1.8212,3.82577 -2.96875,5.15625 -1.1502,1.28368 -2.50244,1.9752 -4.09375,2.0625 -3.13595,0.17203 -5.90071,-0.62605 -8.25,-2.375 -2.30512,-1.7983 -4.2415,-4.19097 -5.8125,-7.15625 -1.57106,-2.96526 -2.79304,-6.30725 -3.65625,-10.0625 -0.86584,-3.802 -1.38579,-7.61505 -1.59375,-11.40625 -0.26962,-4.91445 -0.12272,-10.08433 0.46875,-15.5625 0.63822,-5.48063 1.84001,-10.94435 3.5625,-16.34375 1.72243,-5.39925 4.06616,-10.59563 7.03125,-15.59375 2.96501,-4.99795 6.64464,-9.44127 11.03125,-13.34375 4.38653,-3.90229 9.51776,-7.10941 15.4375,-9.59375 5.96643,-2.4867 12.80842,-3.91998 20.53125,-4.34375 1.05308,-0.0577 2.07039,-0.10095 3.0625,-0.0937 z m -179.5,39.65625 c 0.8701,1.31374 1.35317,3.01884 1.46875,5.125 0.0821,1.49779 -0.61268,3.42925 -2.125,5.8125 -1.51238,2.38333 -3.09272,4.29771 -4.75,5.75 -1.61053,1.44981 -3.41122,2.68784 -5.375,3.6875 -1.9196,0.95036 -3.7213,1.4701 -5.40625,1.5625 -0.0565,-1.02967 -0.0766,-2.26263 -0.0625,-3.71875 0.014,-1.45604 0.3431,-3.33726 0.96875,-5.625 0.67241,-2.29023 1.23924,-4.19015 1.71875,-5.71875 0.52371,-1.57789 1.22182,-2.99723 2.09375,-4.21875 0.91611,-1.27078 2.04317,-2.29905 3.40625,-3.125 2.87117,-1.37454 6.34093,-2.21074 8.0625,0.46875 z m -113.71875,6.25 c 0.8701,1.31374 1.35317,3.01884 1.46875,5.125 0.0821,1.49779 -0.64393,3.42925 -2.15625,5.8125 -1.51238,2.38333 -3.09272,4.29771 -4.75,5.75 -1.61053,1.44981 -3.37997,2.68784 -5.34375,3.6875 -1.9196,0.95036 -3.7213,1.4701 -5.40625,1.5625 -0.0565,-1.02967 -0.10781,-2.29388 -0.0937,-3.75 0.014,-1.45604 0.3431,-3.30601 0.96875,-5.59375 0.67241,-2.29023 1.23924,-4.2214 1.71875,-5.75 0.52371,-1.57789 1.22182,-2.96598 2.09375,-4.1875 0.91611,-1.27078 2.07442,-2.3303 3.4375,-3.15625 2.90606,-1.27862 6.3302,-2.19482 8.06245,0.5 z m 360.96875,0.5625 c 1.45091,-0.0795 2.70786,0.26087 3.78125,1 1.07331,0.73925 1.98899,1.77241 2.71875,3.09375 0.72969,1.32143 1.28838,2.89584 1.71875,4.75 0.42773,1.80745 0.7256,3.78453 0.84375,5.9375 0.14888,2.71471 -0.053,5.85743 -0.5625,9.40625 -0.4653,3.49952 -1.16906,6.52026 -2.15625,9.0625 -0.98983,2.49549 -2.18591,4.59219 -3.59375,6.3125 -1.41049,1.67353 -2.93992,2.56897 -4.53125,2.65625 -1.8254,0.10016 -3.39841,-0.198 -4.75,-0.875 -1.3542,-0.72377 -2.47877,-1.68616 -3.34375,-2.90625 -0.86759,-1.26686 -1.53058,-2.75749 -2,-4.46875 -0.46946,-1.7112 -0.73593,-3.53417 -0.84375,-5.5 -0.21313,-3.88475 -0.0482,-7.40102 0.53125,-10.53125 0.57939,-3.13015 1.4531,-5.99437 2.625,-8.59375 1.16928,-2.6461 2.57682,-4.82929 4.21875,-6.5625 1.64188,-1.73312 3.42473,-2.67593 5.34375,-2.78125 z M 710.875,642.375 c 1.76826,4.97562 1.67794,11.05525 2,15.875 0.0796,1.45097 0.0188,2.84603 -0.1875,4.21875 -0.20897,1.32596 -0.6357,2.52555 -1.28125,3.59375 -0.64817,1.02142 -1.56649,1.85605 -2.75,2.53125 -1.13676,0.67267 -2.61214,1.08737 -4.4375,1.1875 -1.49777,0.0822 -2.85389,-0.20586 -4.0625,-0.84375 -1.20865,-0.63787 -2.28327,-1.36253 -3.21875,-2.15625 -0.93552,-0.79368 -1.75943,-1.52393 -2.5,-2.1875 -0.63216,-0.60694 -1.22756,-0.90915 -1.75,-0.9375 -0.13422,-0.0117 -0.1336,-0.0246 -0.0312,-0.15625 z m -60.65625,3.3125 c 1.76679,4.97512 1.67767,11.05341 2,15.875 0.0796,1.45097 0.0188,2.87728 -0.1875,4.25 -0.20897,1.32596 -0.6357,2.52555 -1.28125,3.59375 -0.64817,1.02142 -1.56649,1.85605 -2.75,2.53125 -1.13676,0.67267 -2.61214,1.05612 -4.4375,1.15625 -1.49777,0.0822 -2.85389,-0.20586 -4.0625,-0.84375 -1.20865,-0.63787 -2.28327,-1.33128 -3.21875,-2.125 -0.93552,-0.79368 -1.75943,-1.52393 -2.5,-2.1875 -0.69379,-0.66611 -1.34461,-0.99954 -1.90625,-0.96875 z"
         id="path3013"
         inkscape:connector-curvature="0"
         sodipodi:nodetypes="scccccccccsccccccccssccssccscccscccccccscccccccsccccscccccccscccccccsccccccsccsccccccccccccsccccsscccccccccccccccccsccssccscssccccscscccscccccccccccsccccccscccccccccccsccccccccccsccccccccccccccscccccccccccccccccccccccccccccccsccscccccccccccccscccscccccccsccccccccccccccccccccccccccccsccccccccccscccccscccccccsccccccccccccccccccccccccccccccccccccccccccccccscccccccccccccccsscccccccccccccccccscccccccccccccccccccccccccccccccccccscccccscccccccccscccccscccccccccccccccccccccccccccccccscccscsscccsccccccccccccccccccccccccccccccccccccscscccccccccccccccccccccccccccc"
         transform="matrix(0.99849868,0.05477591,-0.05477591,0.99849868,-318.96253,-8.2242876)" />
    </g>
  </g>
</svg>
